<svg xmlns="http://www.w3.org/2000/svg" xmlns:xlink="http://www.w3.org/1999/xlink" viewBox="0 0 378.09 536.17"><defs><style>.cls-1{fill:url(#linear-gradient);}.cls-2{fill:url(#linear-gradient-2);}.cls-3{fill:url(#linear-gradient-3);}</style><linearGradient id="linear-gradient" x1="-2.48" y1="268.08" x2="247.67" y2="268.08" gradientTransform="translate(-134.2 212.19) rotate(-45)" gradientUnits="userSpaceOnUse"><stop offset="0" stop-color="#1b9de2"/><stop offset="0.16" stop-color="#1595df"/><stop offset="0.67" stop-color="#0680d7"/><stop offset="1" stop-color="#0078d4"/></linearGradient><linearGradient id="linear-gradient-2" x1="714.18" y1="568.01" x2="826.95" y2="568.01" gradientTransform="matrix(1, 0.07, -0.07, 1, -537.8, -354.84)" xlink:href="#linear-gradient"/><linearGradient id="linear-gradient-3" x1="1562.52" y1="-763.76" x2="1812.67" y2="-763.76" gradientTransform="translate(889.28 -1512.27) rotate(135)" gradientUnits="userSpaceOnUse"><stop offset="0" stop-color="#0c59a4"/><stop offset="1" stop-color="#114a8b"/></linearGradient></defs><title>Asset 1</title><g id="Layer_2" data-name="Layer 2"><g id="Layer_1-2" data-name="Layer 1"><path class="cls-1" d="M269.19,453.26l-82.91,82.91L55.63,405.52C-17.19,332.7-19.2,211,53.62,138.19L97.84,94l82.91,82.91-38.69,38.69c-33.17,33.17-33.17,77.39,0,110.55Z"/><path class="cls-2" d="M225,221.1l-33.05-33.28-38.69,38.69c-27.64,27.64-27.64,60.8,0,88.44l33.17,33.4L225,309.54C252.61,281.9,252.61,248.74,225,221.1Z"/><path class="cls-3" d="M108.9,82.91,191.81,0,322.45,130.65c72.82,72.82,74.84,194.51,2,267.33L280.25,442.2l-82.92-82.91L236,320.6c33.16-33.17,33.16-77.39,0-110.55Z"/></g></g></svg>