<!DOCTYPE svg PUBLIC "-//W3C//DTD SVG 20010904//EN" "http://www.w3.org/TR/2001/REC-SVG-20010904/DTD/svg10.dtd">
<svg version="1.0" xmlns="http://www.w3.org/2000/svg" width="1200px" height="1200px" viewBox="0 0 12000 12000" preserveAspectRatio="xMidYMid meet">
<g id="layer101" fill="#000000" stroke="none">
</g>
<g id="layer102" fill="#555555" stroke="none">
<path d="M10354 10962 c-28 -11 -75 -35 -105 -55 -33 -21 -773 -754 -1879 -1861 -1004 -1004 -1829 -1826 -1834 -1826 -4 0 -38 22 -75 48 -248 179 -578 351 -869 453 -398 139 -790 198 -1232 185 -748 -20 -1407 -259 -2020 -732 -209 -161 -508 -475 -676 -709 -270 -377 -476 -847 -567 -1295 -53 -261 -67 -406 -67 -700 0 -340 26 -556 105 -861 128 -499 376 -976 715 -1374 86 -101 312 -324 410 -406 521 -434 1162 -709 1830 -784 181 -20 577 -20 758 0 657 75 1252 323 1782 744 144 114 451 426 556 566 176 233 281 404 393 635 223 465 332 947 332 1470 0 394 -50 705 -174 1082 -53 160 -62 182 -135 343 -85 186 -212 407 -332 575 -28 39 -50 73 -50 78 0 4 826 833 1835 1842 1386 1386 1843 1849 1869 1894 21 34 42 90 52 134 14 64 15 85 4 146 -28 163 -140 311 -290 383 -69 34 -83 37 -180 40 -85 3 -115 0 -156 -15z m-5669 -3912 c529 -49 1009 -241 1415 -566 109 -88 296 -275 384 -384 667 -833 762 -1990 237 -2910 -352 -619 -923 -1053 -1621 -1234 -394 -101 -878 -101 -1270 1 -382 99 -690 253 -992 496 -501 402 -828 974 -930 1627 -31 194 -31 576 0 770 40 255 120 520 225 740 326 682 944 1192 1677 1383 157 41 275 61 480 80 81 8 293 6 395 -3z"/>
</g>


</svg>